<svg width="66" height="23" viewBox="0 0 66 23" fill="none" xmlns="http://www.w3.org/2000/svg">
<path d="M11.5 0.5H54.5C60.5751 0.5 65.5 5.42487 65.5 11.5C65.5 17.5751 60.5751 22.5 54.5 22.5H11.5C5.42487 22.5 0.5 17.5751 0.5 11.5C0.5 5.42487 5.42487 0.500001 11.5 0.5Z" stroke="black"/>
<path d="M16.2893 17.126C14.9826 17.126 13.9373 16.8367 13.1533 16.258C12.3693 15.67 11.912 14.844 11.7813 13.78H13.8533C13.9186 14.3213 14.18 14.7507 14.6373 15.068C15.0946 15.376 15.678 15.53 16.3873 15.53C16.966 15.53 17.4093 15.4273 17.7173 15.222C18.0346 15.0167 18.1933 14.7413 18.1933 14.396C18.1933 14.0693 18.1 13.808 17.9133 13.612C17.7266 13.4067 17.4046 13.2433 16.9473 13.122L15.0713 12.604C14.11 12.3333 13.4053 11.9647 12.9573 11.498C12.5186 11.022 12.2993 10.4293 12.2993 9.72C12.2993 9.11333 12.4533 8.59067 12.7613 8.152C13.0786 7.704 13.522 7.36333 14.0913 7.13C14.6606 6.88733 15.328 6.766 16.0933 6.766C17.2693 6.766 18.2073 7.046 18.9073 7.606C19.6073 8.15667 20.004 8.88933 20.0973 9.804H18.0253C17.932 9.30933 17.7033 8.94533 17.3393 8.712C16.9846 8.47867 16.5273 8.362 15.9673 8.362C15.482 8.362 15.0946 8.45533 14.8053 8.642C14.516 8.82867 14.3713 9.08067 14.3713 9.398C14.3713 9.64067 14.4506 9.86467 14.6093 10.07C14.768 10.266 15.0993 10.434 15.6033 10.574L17.4793 11.092C18.4686 11.3627 19.178 11.736 19.6073 12.212C20.046 12.6787 20.2653 13.2713 20.2653 13.99C20.2653 14.998 19.9153 15.7727 19.2153 16.314C18.5153 16.8553 17.54 17.126 16.2893 17.126ZM23.7008 17.14C23.1968 17.14 22.7628 17.0327 22.3988 16.818C22.0441 16.594 21.7734 16.3 21.5868 15.936C21.4001 15.5627 21.3068 15.1473 21.3068 14.69V9.86H23.4068V14.284C23.4068 14.676 23.5048 14.97 23.7008 15.166C23.8968 15.362 24.1721 15.46 24.5268 15.46C24.8441 15.46 25.1241 15.3853 25.3668 15.236C25.6094 15.0867 25.8008 14.8813 25.9408 14.62C26.0901 14.3493 26.1648 14.0413 26.1648 13.696L26.3468 15.418C26.1134 15.9313 25.7728 16.3467 25.3248 16.664C24.8768 16.9813 24.3354 17.14 23.7008 17.14ZM26.2068 17V15.32H26.1648V9.86H28.2648V17H26.2068ZM29.6349 17V9.86H31.7349V17H29.6349ZM29.5649 8.908V6.64H31.8049V8.908H29.5649ZM35.2313 17L32.4173 9.86H34.6713L36.8693 16.524H35.6933L37.8773 9.86H40.0753L37.2613 17H35.2313ZM40.8869 17V9.86H42.9449V11.54H42.9869V17H40.8869ZM42.9869 13.276L42.8049 11.582C42.9729 10.9753 43.2482 10.5133 43.6309 10.196C44.0135 9.87867 44.4895 9.72 45.0589 9.72C45.2362 9.72 45.3669 9.73867 45.4509 9.776V11.736C45.4042 11.7173 45.3389 11.708 45.2549 11.708C45.1709 11.6987 45.0682 11.694 44.9469 11.694C44.2749 11.694 43.7802 11.8153 43.4629 12.058C43.1455 12.2913 42.9869 12.6973 42.9869 13.276ZM49.7156 17.14C48.9223 17.14 48.2316 16.986 47.6436 16.678C47.0556 16.3607 46.5983 15.922 46.2716 15.362C45.9543 14.802 45.7956 14.158 45.7956 13.43C45.7956 12.6927 45.9543 12.0487 46.2716 11.498C46.5983 10.938 47.051 10.504 47.6296 10.196C48.2083 9.87867 48.8803 9.72 49.6456 9.72C50.383 9.72 51.0223 9.86933 51.5636 10.168C52.105 10.4667 52.525 10.882 52.8236 11.414C53.1223 11.946 53.2716 12.5713 53.2716 13.29C53.2716 13.4393 53.267 13.5793 53.2576 13.71C53.2483 13.8313 53.2343 13.948 53.2156 14.06H47.0276V12.674H51.5216L51.1576 12.926C51.1576 12.3473 51.0176 11.9227 50.7376 11.652C50.467 11.372 50.0936 11.232 49.6176 11.232C49.067 11.232 48.6376 11.4187 48.3296 11.792C48.031 12.1653 47.8816 12.7253 47.8816 13.472C47.8816 14.2 48.031 14.7413 48.3296 15.096C48.6376 15.4507 49.095 15.628 49.7016 15.628C50.0376 15.628 50.327 15.572 50.5696 15.46C50.8123 15.348 50.9943 15.166 51.1156 14.914H53.0896C52.8563 15.6047 52.455 16.1507 51.8856 16.552C51.3256 16.944 50.6023 17.14 49.7156 17.14Z" fill="#100F20"/>
</svg>
