<svg width="543" height="85" viewBox="0 0 543 85" fill="none" xmlns="http://www.w3.org/2000/svg">
<rect width="543" height="85" rx="42.5" fill="#C76E1E"/>
<path d="M132.463 60.48C129.967 60.48 127.663 60.048 125.551 59.184C123.439 58.288 121.599 57.04 120.031 55.44C118.495 53.84 117.295 51.952 116.431 49.776C115.567 47.568 115.135 45.168 115.135 42.576C115.135 39.984 115.551 37.616 116.383 35.472C117.247 33.328 118.447 31.472 119.983 29.904C121.551 28.304 123.391 27.088 125.503 26.256C127.615 25.392 129.935 24.96 132.463 24.96C135.311 24.96 137.871 25.52 140.143 26.64C142.447 27.728 144.319 29.28 145.759 31.296C147.231 33.28 148.127 35.616 148.447 38.304H141.247C140.831 35.84 139.823 33.984 138.223 32.736C136.623 31.456 134.719 30.816 132.511 30.816C130.559 30.816 128.831 31.28 127.327 32.208C125.855 33.136 124.703 34.48 123.871 36.24C123.039 37.968 122.623 40.064 122.623 42.528C122.623 45.024 123.039 47.184 123.871 49.008C124.735 50.8 125.919 52.192 127.423 53.184C128.927 54.144 130.655 54.624 132.607 54.624C134.687 54.624 136.527 54 138.127 52.752C139.727 51.504 140.767 49.648 141.247 47.184H148.543C148.127 49.872 147.183 52.224 145.711 54.24C144.239 56.224 142.367 57.76 140.095 58.848C137.823 59.936 135.279 60.48 132.463 60.48ZM152.575 60V35.52H159.631V41.28H159.775V60H152.575ZM159.775 47.232L159.151 41.424C159.727 39.344 160.671 37.76 161.983 36.672C163.295 35.584 164.927 35.04 166.879 35.04C167.487 35.04 167.935 35.104 168.223 35.232V41.952C168.063 41.888 167.839 41.856 167.551 41.856C167.263 41.824 166.911 41.808 166.495 41.808C164.191 41.808 162.495 42.224 161.407 43.056C160.319 43.856 159.775 45.248 159.775 47.232ZM182.845 60.48C180.125 60.48 177.757 59.952 175.741 58.896C173.725 57.808 172.157 56.304 171.037 54.384C169.949 52.464 169.405 50.256 169.405 47.76C169.405 45.232 169.949 43.024 171.037 41.136C172.157 39.216 173.709 37.728 175.693 36.672C177.677 35.584 179.981 35.04 182.605 35.04C185.133 35.04 187.325 35.552 189.181 36.576C191.037 37.6 192.477 39.024 193.501 40.848C194.525 42.672 195.037 44.816 195.037 47.28C195.037 47.792 195.021 48.272 194.989 48.72C194.957 49.136 194.909 49.536 194.845 49.92H173.629V45.168H189.037L187.789 46.032C187.789 44.048 187.309 42.592 186.349 41.664C185.421 40.704 184.141 40.224 182.509 40.224C180.621 40.224 179.149 40.864 178.093 42.144C177.069 43.424 176.557 45.344 176.557 47.904C176.557 50.4 177.069 52.256 178.093 53.472C179.149 54.688 180.717 55.296 182.797 55.296C183.949 55.296 184.941 55.104 185.773 54.72C186.605 54.336 187.229 53.712 187.645 52.848H194.413C193.613 55.216 192.237 57.088 190.285 58.464C188.365 59.808 185.885 60.48 182.845 60.48ZM184.477 32.016H178.141L182.893 24.48H192.397L184.477 32.016ZM210.877 60.48C208.157 60.48 205.789 59.952 203.773 58.896C201.757 57.808 200.189 56.304 199.069 54.384C197.981 52.464 197.437 50.256 197.437 47.76C197.437 45.232 197.981 43.024 199.069 41.136C200.189 39.216 201.741 37.728 203.725 36.672C205.709 35.584 208.013 35.04 210.637 35.04C213.165 35.04 215.357 35.552 217.213 36.576C219.069 37.6 220.509 39.024 221.533 40.848C222.557 42.672 223.069 44.816 223.069 47.28C223.069 47.792 223.053 48.272 223.021 48.72C222.989 49.136 222.941 49.536 222.877 49.92H201.661V45.168H217.069L215.821 46.032C215.821 44.048 215.341 42.592 214.381 41.664C213.453 40.704 212.173 40.224 210.541 40.224C208.653 40.224 207.181 40.864 206.125 42.144C205.101 43.424 204.589 45.344 204.589 47.904C204.589 50.4 205.101 52.256 206.125 53.472C207.181 54.688 208.749 55.296 210.829 55.296C211.981 55.296 212.973 55.104 213.805 54.72C214.637 54.336 215.261 53.712 215.677 52.848H222.445C221.645 55.216 220.269 57.088 218.317 58.464C216.397 59.808 213.917 60.48 210.877 60.48ZM226.919 60V35.52H233.975V41.28H234.119V60H226.919ZM234.119 47.232L233.495 41.424C234.071 39.344 235.015 37.76 236.327 36.672C237.639 35.584 239.271 35.04 241.223 35.04C241.831 35.04 242.279 35.104 242.567 35.232V41.952C242.407 41.888 242.183 41.856 241.895 41.856C241.607 41.824 241.255 41.808 240.839 41.808C238.535 41.808 236.839 42.224 235.751 43.056C234.663 43.856 234.119 45.248 234.119 47.232ZM263.105 60.48C261.377 60.48 259.889 60.112 258.641 59.376C257.425 58.608 256.497 57.6 255.857 56.352C255.217 55.072 254.897 53.648 254.897 52.08V35.52H262.097V50.688C262.097 52.032 262.433 53.04 263.105 53.712C263.777 54.384 264.721 54.72 265.937 54.72C267.025 54.72 267.985 54.464 268.817 53.952C269.649 53.44 270.305 52.736 270.785 51.84C271.297 50.912 271.553 49.856 271.553 48.672L272.177 54.576C271.377 56.336 270.209 57.76 268.673 58.848C267.137 59.936 265.281 60.48 263.105 60.48ZM271.697 60V54.24H271.553V35.52H278.753V60H271.697ZM284.528 60V35.52H291.584V41.28H291.728V60H284.528ZM301.568 60V44.832C301.568 43.488 301.216 42.48 300.512 41.808C299.84 41.136 298.848 40.8 297.536 40.8C296.416 40.8 295.408 41.056 294.512 41.568C293.648 42.08 292.96 42.784 292.448 43.68C291.968 44.576 291.728 45.632 291.728 46.848L291.104 40.944C291.904 39.152 293.072 37.728 294.608 36.672C296.176 35.584 298.096 35.04 300.368 35.04C303.088 35.04 305.168 35.808 306.608 37.344C308.048 38.848 308.768 40.88 308.768 43.44V60H301.568ZM334.476 60.48C331.916 60.48 329.66 59.936 327.708 58.848C325.756 57.76 324.22 56.256 323.1 54.336C322.012 52.416 321.468 50.224 321.468 47.76C321.468 45.296 322.012 43.104 323.1 41.184C324.22 39.264 325.756 37.76 327.708 36.672C329.66 35.584 331.916 35.04 334.476 35.04C336.62 35.04 338.54 35.44 340.236 36.24C341.964 37.008 343.372 38.08 344.46 39.456C345.58 40.832 346.3 42.448 346.62 44.304H339.66C339.308 43.12 338.668 42.224 337.74 41.616C336.844 41.008 335.788 40.704 334.572 40.704C333.42 40.704 332.412 40.992 331.548 41.568C330.716 42.144 330.076 42.96 329.628 44.016C329.18 45.072 328.956 46.32 328.956 47.76C328.956 49.2 329.18 50.448 329.628 51.504C330.076 52.56 330.716 53.376 331.548 53.952C332.412 54.528 333.42 54.816 334.572 54.816C335.788 54.816 336.844 54.512 337.74 53.904C338.668 53.296 339.308 52.4 339.66 51.216H346.62C346.3 53.072 345.58 54.688 344.46 56.064C343.372 57.44 341.964 58.528 340.236 59.328C338.54 60.096 336.62 60.48 334.476 60.48ZM361.816 60.48C359.128 60.48 356.76 59.952 354.712 58.896C352.696 57.808 351.112 56.304 349.96 54.384C348.84 52.432 348.28 50.192 348.28 47.664C348.28 45.136 348.84 42.928 349.96 41.04C351.112 39.152 352.696 37.68 354.712 36.624C356.76 35.568 359.128 35.04 361.816 35.04C364.536 35.04 366.904 35.568 368.92 36.624C370.968 37.68 372.552 39.152 373.672 41.04C374.792 42.928 375.352 45.136 375.352 47.664C375.352 50.192 374.776 52.432 373.624 54.384C372.504 56.304 370.92 57.808 368.872 58.896C366.856 59.952 364.504 60.48 361.816 60.48ZM361.816 54.816C362.936 54.816 363.944 54.528 364.84 53.952C365.768 53.376 366.504 52.56 367.048 51.504C367.592 50.416 367.864 49.12 367.864 47.616C367.864 45.408 367.272 43.712 366.088 42.528C364.936 41.312 363.512 40.704 361.816 40.704C360.12 40.704 358.68 41.312 357.496 42.528C356.344 43.744 355.768 45.44 355.768 47.616C355.768 49.12 356.04 50.416 356.584 51.504C357.128 52.56 357.848 53.376 358.744 53.952C359.672 54.528 360.696 54.816 361.816 54.816ZM379.169 60V35.52H386.225V41.28H386.369V60H379.169ZM395.633 60V44.448C395.633 43.2 395.297 42.288 394.625 41.712C393.985 41.104 393.073 40.8 391.889 40.8C390.865 40.8 389.921 41.04 389.057 41.52C388.225 41.968 387.569 42.624 387.089 43.488C386.609 44.32 386.369 45.312 386.369 46.464L385.745 40.944C386.545 39.152 387.697 37.728 389.201 36.672C390.737 35.584 392.577 35.04 394.721 35.04C397.281 35.04 399.265 35.76 400.673 37.2C402.113 38.64 402.833 40.448 402.833 42.624V60H395.633ZM412.097 60V44.448C412.097 43.2 411.761 42.288 411.089 41.712C410.449 41.104 409.537 40.8 408.353 40.8C407.329 40.8 406.385 41.04 405.521 41.52C404.689 41.968 404.033 42.624 403.553 43.488C403.073 44.32 402.833 45.312 402.833 46.464L401.729 40.944C402.529 39.152 403.713 37.728 405.281 36.672C406.881 35.584 408.801 35.04 411.041 35.04C413.697 35.04 415.729 35.792 417.137 37.296C418.577 38.768 419.297 40.704 419.297 43.104V60H412.097ZM439.706 60.48C437.37 60.48 435.498 59.936 434.09 58.848C432.682 57.76 431.85 56.272 431.594 54.384L431.978 54.336V69.84H424.778V35.52H431.834V40.944L431.402 40.848C431.754 39.056 432.714 37.648 434.282 36.624C435.85 35.568 437.786 35.04 440.09 35.04C442.298 35.04 444.202 35.568 445.802 36.624C447.434 37.648 448.682 39.104 449.546 40.992C450.442 42.88 450.89 45.104 450.89 47.664C450.89 50.256 450.426 52.512 449.498 54.432C448.57 56.352 447.274 57.84 445.61 58.896C443.946 59.952 441.978 60.48 439.706 60.48ZM437.69 54.72C439.386 54.72 440.762 54.112 441.818 52.896C442.874 51.68 443.402 49.952 443.402 47.712C443.402 45.472 442.858 43.76 441.77 42.576C440.714 41.392 439.322 40.8 437.594 40.8C435.93 40.8 434.554 41.408 433.466 42.624C432.41 43.808 431.882 45.52 431.882 47.76C431.882 50 432.41 51.728 433.466 52.944C434.554 54.128 435.962 54.72 437.69 54.72ZM465.879 60.528C462.743 60.528 460.407 59.776 458.871 58.272C457.367 56.736 456.615 54.416 456.615 51.312V30.048L463.815 27.36V51.552C463.815 52.64 464.119 53.456 464.727 54C465.335 54.544 466.279 54.816 467.559 54.816C468.039 54.816 468.487 54.768 468.903 54.672C469.319 54.576 469.735 54.464 470.151 54.336V59.808C469.735 60.032 469.143 60.208 468.375 60.336C467.639 60.464 466.807 60.528 465.879 60.528ZM452.055 40.992V35.52H470.151V40.992H452.055ZM485.142 60.48C482.422 60.48 480.054 59.952 478.038 58.896C476.022 57.808 474.454 56.304 473.334 54.384C472.246 52.464 471.702 50.256 471.702 47.76C471.702 45.232 472.246 43.024 473.334 41.136C474.454 39.216 476.006 37.728 477.99 36.672C479.974 35.584 482.278 35.04 484.902 35.04C487.43 35.04 489.622 35.552 491.478 36.576C493.334 37.6 494.774 39.024 495.798 40.848C496.822 42.672 497.334 44.816 497.334 47.28C497.334 47.792 497.318 48.272 497.286 48.72C497.254 49.136 497.206 49.536 497.142 49.92H475.926V45.168H491.334L490.086 46.032C490.086 44.048 489.606 42.592 488.646 41.664C487.718 40.704 486.438 40.224 484.806 40.224C482.918 40.224 481.446 40.864 480.39 42.144C479.366 43.424 478.854 45.344 478.854 47.904C478.854 50.4 479.366 52.256 480.39 53.472C481.446 54.688 483.014 55.296 485.094 55.296C486.246 55.296 487.238 55.104 488.07 54.72C488.902 54.336 489.526 53.712 489.942 52.848H496.71C495.91 55.216 494.534 57.088 492.582 58.464C490.662 59.808 488.182 60.48 485.142 60.48Z" fill="#100F20"/>
<path d="M66 45.625C79.9562 45.625 91.375 54.6875 91.375 61.9375C91.375 63.3796 90.8021 64.7627 89.7824 65.7824C88.7627 66.8021 87.3796 67.375 85.9375 67.375H46.0625C44.6204 67.375 43.2373 66.8021 42.2176 65.7824C41.1979 64.7627 40.625 63.3796 40.625 61.9375C40.625 54.6875 52.0438 45.625 66 45.625ZM66 16.625C69.3649 16.625 72.592 17.9617 74.9714 20.3411C77.3508 22.7205 78.6875 25.9476 78.6875 29.3125C78.6875 32.6774 77.3508 35.9045 74.9714 38.2839C72.592 40.6633 69.3649 42 66 42C62.6351 42 59.408 40.6633 57.0286 38.2839C54.6492 35.9045 53.3125 32.6774 53.3125 29.3125C53.3125 25.9476 54.6492 22.7205 57.0286 20.3411C59.408 17.9617 62.6351 16.625 66 16.625Z" fill="#100F20"/>
</svg>
