<svg width="121" height="25" viewBox="0 0 121 25" fill="none" xmlns="http://www.w3.org/2000/svg">
<path d="M0 12.5C0 5.59644 5.59644 0 12.5 0H108.5C115.404 0 121 5.59644 121 12.5C121 19.4036 115.404 25 108.5 25H12.5C5.59644 25 0 19.4036 0 12.5Z" fill="#100F20"/>
<path d="M27.543 17L23.673 6.2H26.073L29.028 15.2H28.743L31.713 6.2H33.993L30.123 17H27.543ZM37.7746 17.15C36.9346 17.15 36.1946 16.985 35.5546 16.655C34.9246 16.315 34.4296 15.845 34.0696 15.245C33.7196 14.635 33.5446 13.935 33.5446 13.145C33.5446 12.355 33.7196 11.665 34.0696 11.075C34.4296 10.485 34.9246 10.025 35.5546 9.695C36.1946 9.365 36.9346 9.2 37.7746 9.2C38.6246 9.2 39.3646 9.365 39.9946 9.695C40.6346 10.025 41.1296 10.485 41.4796 11.075C41.8296 11.665 42.0046 12.355 42.0046 13.145C42.0046 13.935 41.8246 14.635 41.4646 15.245C41.1146 15.845 40.6196 16.315 39.9796 16.655C39.3496 16.985 38.6146 17.15 37.7746 17.15ZM37.7746 15.38C38.1246 15.38 38.4396 15.29 38.7196 15.11C39.0096 14.93 39.2396 14.675 39.4096 14.345C39.5796 14.005 39.6646 13.6 39.6646 13.13C39.6646 12.44 39.4796 11.91 39.1096 11.54C38.7496 11.16 38.3046 10.97 37.7746 10.97C37.2446 10.97 36.7946 11.16 36.4246 11.54C36.0646 11.92 35.8846 12.45 35.8846 13.13C35.8846 13.6 35.9696 14.005 36.1396 14.345C36.3096 14.675 36.5346 14.93 36.8146 15.11C37.1046 15.29 37.4246 15.38 37.7746 15.38ZM43.1681 17V9.35H45.4181V17H43.1681ZM43.0931 8.33V5.9H45.4931V8.33H43.0931ZM47.211 17V9.35H49.416V11.15H49.461V17H47.211ZM49.461 13.01L49.266 11.195C49.446 10.545 49.741 10.05 50.151 9.71C50.561 9.37 51.071 9.2 51.681 9.2C51.871 9.2 52.011 9.22 52.101 9.26V11.36C52.051 11.34 51.981 11.33 51.891 11.33C51.801 11.32 51.691 11.315 51.561 11.315C50.841 11.315 50.311 11.445 49.971 11.705C49.631 11.955 49.461 12.39 49.461 13.01ZM56.044 17V6.2H58.294V17H56.044ZM60.057 10.595V9.5C60.557 9.44 60.882 9.28 61.032 9.02C61.192 8.76 61.272 8.415 61.272 7.985L62.157 8.165H60.087V5.9H62.562V7.58C62.562 8.33 62.357 8.985 61.947 9.545C61.547 10.105 60.917 10.455 60.057 10.595ZM66.4563 17.15C65.6163 17.15 64.8763 16.985 64.2363 16.655C63.6063 16.315 63.1113 15.845 62.7513 15.245C62.4013 14.635 62.2263 13.935 62.2263 13.145C62.2263 12.355 62.4013 11.665 62.7513 11.075C63.1113 10.485 63.6063 10.025 64.2363 9.695C64.8763 9.365 65.6163 9.2 66.4563 9.2C67.3063 9.2 68.0463 9.365 68.6763 9.695C69.3163 10.025 69.8113 10.485 70.1613 11.075C70.5113 11.665 70.6863 12.355 70.6863 13.145C70.6863 13.935 70.5063 14.635 70.1463 15.245C69.7963 15.845 69.3013 16.315 68.6613 16.655C68.0313 16.985 67.2963 17.15 66.4563 17.15ZM66.4563 15.38C66.8063 15.38 67.1213 15.29 67.4013 15.11C67.6913 14.93 67.9213 14.675 68.0913 14.345C68.2613 14.005 68.3463 13.6 68.3463 13.13C68.3463 12.44 68.1613 11.91 67.7913 11.54C67.4313 11.16 66.9863 10.97 66.4563 10.97C65.9263 10.97 65.4763 11.16 65.1063 11.54C64.7463 11.92 64.5663 12.45 64.5663 13.13C64.5663 13.6 64.6513 14.005 64.8213 14.345C64.9913 14.675 65.2163 14.93 65.4963 15.11C65.7863 15.29 66.1063 15.38 66.4563 15.38ZM72.3175 17V8.84C72.3175 7.92 72.5675 7.225 73.0675 6.755C73.5675 6.285 74.3075 6.05 75.2875 6.05C75.4975 6.05 75.6775 6.06 75.8275 6.08C75.9875 6.1 76.1425 6.135 76.2925 6.185V7.91C76.2225 7.88 76.1375 7.86 76.0375 7.85C75.9375 7.83 75.8175 7.82 75.6775 7.82C75.2975 7.82 75.0175 7.91 74.8375 8.09C74.6575 8.27 74.5675 8.53 74.5675 8.87V17H72.3175ZM71.0425 11.06V9.35H76.1275V11.06H71.0425ZM78.0304 17V8.84C78.0304 7.92 78.2804 7.225 78.7804 6.755C79.2804 6.285 80.0204 6.05 81.0004 6.05C81.2104 6.05 81.3904 6.06 81.5404 6.08C81.7004 6.1 81.8554 6.135 82.0054 6.185V7.91C81.9354 7.88 81.8504 7.86 81.7504 7.85C81.6504 7.83 81.5304 7.82 81.3904 7.82C81.0104 7.82 80.7304 7.91 80.5504 8.09C80.3704 8.27 80.2804 8.53 80.2804 8.87V17H78.0304ZM76.7554 11.06V9.35H81.8404V11.06H76.7554ZM83.1144 17V9.35H85.3194V11.15H85.3644V17H83.1144ZM85.3644 13.01L85.1694 11.195C85.3494 10.545 85.6444 10.05 86.0544 9.71C86.4644 9.37 86.9744 9.2 87.5844 9.2C87.7744 9.2 87.9144 9.22 88.0044 9.26V11.36C87.9544 11.34 87.8844 11.33 87.7944 11.33C87.7044 11.32 87.5944 11.315 87.4644 11.315C86.7444 11.315 86.2144 11.445 85.8744 11.705C85.5344 11.955 85.3644 12.39 85.3644 13.01ZM92.5737 17.15C91.7237 17.15 90.9837 16.985 90.3537 16.655C89.7237 16.315 89.2337 15.845 88.8837 15.245C88.5437 14.645 88.3737 13.955 88.3737 13.175C88.3737 12.385 88.5437 11.695 88.8837 11.105C89.2337 10.505 89.7187 10.04 90.3387 9.71C90.9587 9.37 91.6787 9.2 92.4987 9.2C93.2887 9.2 93.9737 9.36 94.5537 9.68C95.1337 10 95.5837 10.445 95.9037 11.015C96.2237 11.585 96.3837 12.255 96.3837 13.025C96.3837 13.185 96.3787 13.335 96.3687 13.475C96.3587 13.605 96.3437 13.73 96.3237 13.85H89.6937V12.365H94.5087L94.1187 12.635C94.1187 12.015 93.9687 11.56 93.6687 11.27C93.3787 10.97 92.9787 10.82 92.4687 10.82C91.8787 10.82 91.4187 11.02 91.0887 11.42C90.7687 11.82 90.6087 12.42 90.6087 13.22C90.6087 14 90.7687 14.58 91.0887 14.96C91.4187 15.34 91.9087 15.53 92.5587 15.53C92.9187 15.53 93.2287 15.47 93.4887 15.35C93.7487 15.23 93.9437 15.035 94.0737 14.765H96.1887C95.9387 15.505 95.5087 16.09 94.8987 16.52C94.2987 16.94 93.5237 17.15 92.5737 17.15Z" fill="white"/>
</svg>
