<svg width="752" height="429" viewBox="0 0 752 429" fill="none" xmlns="http://www.w3.org/2000/svg">
<path d="M112.1 114.042L96.8531 98.9187C95.3656 99.8278 93.7756 100.51 92.0832 100.967C90.3908 101.423 88.6339 101.649 86.8125 101.646C81.3583 101.646 76.6892 99.7038 72.8052 95.8198C68.9212 91.9358 66.9792 87.2667 66.9792 81.8125C66.9792 76.3583 68.9212 71.6892 72.8052 67.8052C76.6892 63.9212 81.3583 61.9792 86.8125 61.9792C92.2667 61.9792 96.9358 63.9212 100.82 67.8052C104.704 71.6892 106.646 76.3583 106.646 81.8125C106.646 83.7132 106.398 85.5114 105.902 87.2072C105.406 88.9029 104.704 90.4929 103.795 91.9771L119.042 107.1L112.1 114.042ZM32.2708 101.646C26.8167 101.646 22.1476 99.7038 18.2635 95.8198C14.3795 91.9358 12.4375 87.2667 12.4375 81.8125C12.4375 76.3583 14.3795 71.6892 18.2635 67.8052C22.1476 63.9212 26.8167 61.9792 32.2708 61.9792C37.725 61.9792 42.3941 63.9212 46.2781 67.8052C50.1622 71.6892 52.1042 76.3583 52.1042 81.8125C52.1042 87.2667 50.1622 91.9358 46.2781 95.8198C42.3941 99.7038 37.725 101.646 32.2708 101.646ZM86.8125 91.7292C89.5396 91.7292 91.875 90.759 93.8186 88.8186C95.7623 86.8783 96.7325 84.5429 96.7292 81.8125C96.7259 79.0821 95.7557 76.7484 93.8186 74.8113C91.8816 72.8743 89.5462 71.9024 86.8125 71.8958C84.0788 71.8892 81.7451 72.8611 79.8113 74.8113C77.8776 76.7616 76.9057 79.0953 76.8958 81.8125C76.8859 84.5297 77.8577 86.865 79.8113 88.8186C81.7649 90.7722 84.0986 91.7424 86.8125 91.7292ZM32.2708 47.1042C26.8167 47.1042 22.1476 45.1622 18.2635 41.2781C14.3795 37.3941 12.4375 32.725 12.4375 27.2708C12.4375 21.8167 14.3795 17.1476 18.2635 13.2635C22.1476 9.37951 26.8167 7.4375 32.2708 7.4375C37.725 7.4375 42.3941 9.37951 46.2781 13.2635C50.1622 17.1476 52.1042 21.8167 52.1042 27.2708C52.1042 32.725 50.1622 37.3941 46.2781 41.2781C42.3941 45.1622 37.725 47.1042 32.2708 47.1042ZM86.8125 47.1042C81.3583 47.1042 76.6892 45.1622 72.8052 41.2781C68.9212 37.3941 66.9792 32.725 66.9792 27.2708C66.9792 21.8167 68.9212 17.1476 72.8052 13.2635C76.6892 9.37951 81.3583 7.4375 86.8125 7.4375C92.2667 7.4375 96.9358 9.37951 100.82 13.2635C104.704 17.1476 106.646 21.8167 106.646 27.2708C106.646 32.725 104.704 37.3941 100.82 41.2781C96.9358 45.1622 92.2667 47.1042 86.8125 47.1042Z" fill="#C76E1E"/>
<path d="M25.9987 330.583L36.2904 320.292C37.2834 319.299 37.7799 318.035 37.7799 316.5C37.7799 314.965 37.2834 313.701 36.2904 312.708C35.2973 311.715 34.0334 311.219 32.4987 311.219C30.964 311.219 29.7001 311.715 28.707 312.708L14.6237 326.792C13.5404 327.875 12.9987 329.139 12.9987 330.583C12.9987 332.028 13.5404 333.292 14.6237 334.375L28.707 348.458C29.7001 349.451 30.964 349.948 32.4987 349.948C34.0334 349.948 35.2973 349.451 36.2904 348.458C37.2834 347.465 37.7799 346.201 37.7799 344.667C37.7799 343.132 37.2834 341.868 36.2904 340.875L25.9987 330.583ZM103.999 330.583L93.707 340.875C92.714 341.868 92.2175 343.132 92.2175 344.667C92.2175 346.201 92.714 347.465 93.707 348.458C94.7001 349.451 95.964 349.948 97.4987 349.948C99.0334 349.948 100.297 349.451 101.29 348.458L115.374 334.375C116.457 333.292 116.999 332.028 116.999 330.583C116.999 329.139 116.457 327.875 115.374 326.792L101.29 312.708C100.297 311.715 99.0334 311.219 97.4987 311.219C95.964 311.219 94.7001 311.715 93.707 312.708C92.714 313.701 92.2175 314.965 92.2175 316.5C92.2175 318.035 92.714 319.299 93.707 320.292L103.999 330.583ZM10.832 303.5V298.083C10.832 295.104 11.8937 292.555 14.017 290.435C16.1404 288.315 18.6898 287.254 21.6654 287.25H108.332C111.311 287.25 113.862 288.312 115.986 290.435C118.109 292.558 119.169 295.108 119.165 298.083V303.5C119.165 305.035 118.645 306.322 117.605 307.362C116.565 308.402 115.28 308.92 113.749 308.917C112.218 308.913 110.932 308.393 109.892 307.357C108.852 306.32 108.332 305.035 108.332 303.5V298.083H21.6654V303.5C21.6654 305.035 21.1454 306.322 20.1054 307.362C19.0654 308.402 17.7798 308.92 16.2487 308.917C14.7176 308.913 13.432 308.393 12.392 307.357C11.352 306.32 10.832 305.035 10.832 303.5ZM48.7487 384.75C47.214 384.75 45.9284 384.23 44.892 383.19C43.8556 382.15 43.3356 380.864 43.332 379.333V373.917H21.6654C18.6862 373.917 16.1368 372.857 14.017 370.737C11.8973 368.617 10.8356 366.066 10.832 363.083V357.802C10.832 356.267 11.352 355.003 12.392 354.01C13.432 353.017 14.7176 352.521 16.2487 352.521C17.7798 352.521 19.0672 353.039 20.1108 354.075C21.1544 355.112 21.6726 356.399 21.6654 357.937V363.083H108.332V357.802C108.332 356.267 108.852 355.003 109.892 354.01C110.932 353.017 112.218 352.521 113.749 352.521C115.28 352.521 116.567 353.039 117.611 354.075C118.654 355.112 119.173 356.399 119.165 357.937V363.083C119.165 366.062 118.106 368.614 115.986 370.737C113.866 372.86 111.315 373.92 108.332 373.917H86.6654V379.333C86.6654 380.868 86.1454 382.155 85.1054 383.195C84.0654 384.235 82.7798 384.754 81.2487 384.75H48.7487Z" fill="#C76E1E"/>
<path d="M666.509 293.369L642.332 295.884L622.023 321.995V336.501L637.497 353.522L655.291 349.847L668.83 352.554L665.929 362.999L675.213 379.826L670.571 391.624L681.529 423.632L696.295 421.217L709.834 405.937L710.995 395.299L719.698 388.723L717.957 369.575L740.978 340.11L726.661 342.11L704.805 304.007L670.377 301.686L666.509 293.369ZM736.002 381.439L732.036 387.184L728.344 387.32C725.081 394.018 724.874 397.79 724.514 405.647L729.301 406.878L735.319 392.517L736.002 381.439Z" fill="#C76E1E"/>
<path d="M682.689 19.3031L656.373 48.6656C655.335 49.8211 655.38 51.6109 656.486 52.7211C663.37 59.6312 674.542 59.6312 681.425 52.7211L688.602 45.5164C689.55 44.5648 690.747 44.0438 691.965 43.9531C693.5 43.8172 695.08 44.3383 696.253 45.5164L736.111 85.1875L752 72.5V7.25L726.722 21.75L721.351 18.1477C717.787 15.768 713.602 14.499 709.321 14.5H693.432C693.184 14.5 692.913 14.5 692.665 14.5227C688.851 14.7266 685.262 16.4484 682.689 19.3031ZM648.316 41.393L672.42 14.5H663.483C657.727 14.5 652.22 16.7883 648.158 20.8664L647.278 21.75L622 7.25V72.5L657.299 102.021C662.49 106.371 669.035 108.75 675.783 108.75H679.326L677.747 107.164C675.625 105.034 675.625 101.591 677.747 99.4836C679.868 97.3766 683.299 97.3539 685.398 99.4836L694.651 108.773H696.682C700.993 108.773 705.214 107.798 709.05 105.986L703.024 99.9141C700.903 97.7844 700.903 94.3406 703.024 92.2336C705.146 90.1266 708.576 90.1039 710.675 92.2336L717.898 99.4836L721.847 95.5188C723.856 93.5023 724.443 90.5797 723.562 88.0195L692.439 57.0258L689.076 60.4016C677.95 71.5711 659.939 71.5711 648.813 60.4016C643.622 55.1906 643.418 46.8305 648.316 41.3703V41.393Z" fill="#C76E1E"/>
</svg>
