<svg width="58" height="58" viewBox="0 0 58 58" fill="none" xmlns="http://www.w3.org/2000/svg">
<g clip-path="url(#clip0_615_773)">
<path d="M28.9992 27.7998C28.787 27.7998 28.5836 27.8841 28.4335 28.0341C28.2835 28.1841 28.1992 28.3876 28.1992 28.5998C28.1992 28.812 28.2835 29.0155 28.4335 29.1655C28.5836 29.3155 28.787 29.3998 28.9992 29.3998C29.2114 29.3998 29.4149 29.3155 29.5649 29.1655C29.7149 29.0155 29.7992 28.812 29.7992 28.5998C29.7992 28.3876 29.7149 28.1841 29.5649 28.0341C29.4149 27.8841 29.2114 27.7998 28.9992 27.7998Z" fill="white"/>
<path fill-rule="evenodd" clip-rule="evenodd" d="M36.2 24.9056L29.8 21.7056V19.8H34.6V15H28.2V21.7056L21.8 24.9056V27.8H18.6V37.4H17V39H26.6V32.6H31.4V39H41V37.4H39.4V27.8H36.2V24.9056ZM37.8 37.4V29.4H36.2V37.4H37.8ZM21.8 37.4H20.2V29.4H21.8V37.4ZM26.6 28.6C26.6 27.9635 26.8529 27.353 27.3029 26.9029C27.753 26.4529 28.3635 26.2 29 26.2C29.6365 26.2 30.247 26.4529 30.6971 26.9029C31.1471 27.353 31.4 27.9635 31.4 28.6C31.4 29.2365 31.1471 29.847 30.6971 30.2971C30.247 30.7471 29.6365 31 29 31C28.3635 31 27.753 30.7471 27.3029 30.2971C26.8529 29.847 26.6 29.2365 26.6 28.6Z" fill="white"/>
<path d="M29.7992 39.0002V34.2002H28.1992V39.0002H29.7992Z" fill="white"/>
</g>
<circle cx="29" cy="29" r="28.5" stroke="white"/>
<defs>
<clipPath id="clip0_615_773">
<rect width="24" height="24" fill="white" transform="translate(17 15)"/>
</clipPath>
</defs>
</svg>
