<svg width="110" height="110" viewBox="0 0 110 110" fill="none" xmlns="http://www.w3.org/2000/svg">
<circle cx="55" cy="55" r="55" fill="#C76E1E"/>
<path d="M63.6667 59.333C66.5398 59.333 69.2953 60.4744 71.327 62.506C73.3586 64.5377 74.5 67.2932 74.5 70.1663V72.333C74.5 73.4823 74.0434 74.5845 73.2308 75.3971C72.4181 76.2098 71.3159 76.6663 70.1667 76.6663H39.8333C38.6841 76.6663 37.5819 76.2098 36.7692 75.3971C35.9565 74.5845 35.5 73.4823 35.5 72.333V70.1663C35.5 67.2932 36.6414 64.5377 38.673 62.506C40.7047 60.4744 43.4602 59.333 46.3333 59.333H63.6667ZM72.3333 46.333C72.908 46.333 73.4591 46.5613 73.8654 46.9676C74.2717 47.3739 74.5 47.925 74.5 48.4997V50.6663H76.6667C77.2413 50.6663 77.7924 50.8946 78.1987 51.3009C78.6051 51.7073 78.8333 52.2584 78.8333 52.833C78.8333 53.4076 78.6051 53.9587 78.1987 54.3651C77.7924 54.7714 77.2413 54.9997 76.6667 54.9997H74.5V57.1663C74.5 57.741 74.2717 58.2921 73.8654 58.6984C73.4591 59.1047 72.908 59.333 72.3333 59.333C71.7587 59.333 71.2076 59.1047 70.8013 58.6984C70.3949 58.2921 70.1667 57.741 70.1667 57.1663V54.9997H68C67.4254 54.9997 66.8743 54.7714 66.4679 54.3651C66.0616 53.9587 65.8333 53.4076 65.8333 52.833C65.8333 52.2584 66.0616 51.7073 66.4679 51.3009C66.8743 50.8946 67.4254 50.6663 68 50.6663H70.1667V48.4997C70.1667 47.925 70.3949 47.3739 70.8013 46.9676C71.2076 46.5613 71.7587 46.333 72.3333 46.333ZM55 33.333C57.8732 33.333 60.6287 34.4744 62.6603 36.506C64.692 38.5377 65.8333 41.2932 65.8333 44.1663C65.8333 47.0395 64.692 49.795 62.6603 51.8267C60.6287 53.8583 57.8732 54.9997 55 54.9997C52.1268 54.9997 49.3713 53.8583 47.3397 51.8267C45.308 49.795 44.1667 47.0395 44.1667 44.1663C44.1667 41.2932 45.308 38.5377 47.3397 36.506C49.3713 34.4744 52.1268 33.333 55 33.333Z" fill="white"/>
</svg>
