<svg width="58" height="58" viewBox="0 0 58 58" fill="none" xmlns="http://www.w3.org/2000/svg">
<circle cx="29" cy="29" r="28.5" stroke="white"/>
<path d="M26.3333 28.9997C29.2789 28.9997 31.6667 26.6119 31.6667 23.6663C31.6667 20.7208 29.2789 18.333 26.3333 18.333C23.3878 18.333 21 20.7208 21 23.6663C21 26.6119 23.3878 28.9997 26.3333 28.9997Z" fill="white"/>
<path d="M26.8013 31.6797C23.1613 31.5464 15.668 33.3597 15.668 36.9997V38.333C15.668 39.0664 16.268 39.6664 17.0013 39.6664H28.388C25.0946 35.9864 26.748 31.813 26.8013 31.6797ZM38.908 37.0264C39.5346 35.9597 39.8413 34.6664 39.548 33.2664C39.0946 31.0797 37.2546 29.333 35.0413 29.053C31.5346 28.5997 28.5746 31.5464 29.0413 35.053C29.3346 37.2664 31.068 39.1064 33.2546 39.5597C34.6546 39.853 35.948 39.5464 37.0146 38.9197L39.4946 41.3997C39.7439 41.649 40.0821 41.7891 40.4346 41.7891C40.7872 41.7891 41.1253 41.649 41.3746 41.3997C41.6239 41.1504 41.764 40.8123 41.764 40.4597C41.764 40.1071 41.6239 39.769 41.3746 39.5197L38.908 37.0264ZM34.3346 36.9997C32.868 36.9997 31.668 35.7997 31.668 34.333C31.668 32.8664 32.868 31.6664 34.3346 31.6664C35.8013 31.6664 37.0013 32.8664 37.0013 34.333C37.0013 35.7997 35.8013 36.9997 34.3346 36.9997Z" fill="white"/>
</svg>
