<svg width="110" height="110" viewBox="0 0 110 110" fill="none" xmlns="http://www.w3.org/2000/svg">
<circle cx="55" cy="55" r="55" fill="#C76E1E"/>
<path d="M79.1458 51.8538L82.9375 55.6726L65.2521 73.5205L55.8542 64.0413L59.6458 60.2226L65.2521 65.8559L79.1458 51.8538ZM49.0833 64.0413L57.2083 72.1663H30.125V66.7497C30.125 60.7643 39.8208 55.9163 51.7917 55.9163L56.9104 56.2143L49.0833 64.0413ZM51.7917 28.833C54.6648 28.833 57.4203 29.9744 59.452 32.006C61.4836 34.0377 62.625 36.7932 62.625 39.6663C62.625 42.5395 61.4836 45.295 59.452 47.3267C57.4203 49.3583 54.6648 50.4997 51.7917 50.4997C48.9185 50.4997 46.163 49.3583 44.1313 47.3267C42.0997 45.295 40.9583 42.5395 40.9583 39.6663C40.9583 36.7932 42.0997 34.0377 44.1313 32.006C46.163 29.9744 48.9185 28.833 51.7917 28.833Z" fill="white"/>
</svg>
