<svg width="58" height="58" viewBox="0 0 58 58" fill="none" xmlns="http://www.w3.org/2000/svg">
<circle cx="29" cy="29" r="28.5" stroke="white"/>
<path d="M40.25 37.75H42.75V40.25H15.25V37.75H17.75V19C17.75 18.6685 17.8817 18.3505 18.1161 18.1161C18.3505 17.8817 18.6685 17.75 19 17.75H31.5C31.8315 17.75 32.1495 17.8817 32.3839 18.1161C32.6183 18.3505 32.75 18.6685 32.75 19V37.75H35.25V25.25H39C39.3315 25.25 39.6495 25.3817 39.8839 25.6161C40.1183 25.8505 40.25 26.1685 40.25 26.5V37.75ZM22.75 27.75V30.25H27.75V27.75H22.75ZM22.75 22.75V25.25H27.75V22.75H22.75Z" fill="white"/>
</svg>
