<svg width="110" height="110" viewBox="0 0 110 110" fill="none" xmlns="http://www.w3.org/2000/svg">
<circle cx="55" cy="55" r="55" fill="#C76E1E"/>
<path d="M63.9168 60.6668H61.6785L60.8852 59.9018C62.6559 57.8447 63.95 55.4217 64.6749 52.8061C65.3998 50.1905 65.5377 47.4469 65.0785 44.7718C63.7468 36.8952 57.1735 30.6052 49.2402 29.6418C46.4511 29.289 43.6182 29.5789 40.9584 30.4893C38.2986 31.3997 35.8823 32.9065 33.8944 34.8944C31.9065 36.8823 30.3997 39.2986 29.4893 41.9584C28.5789 44.6182 28.289 47.4511 28.6418 50.2402C29.6052 58.1735 35.8952 64.7468 43.7718 66.0785C46.4469 66.5377 49.1905 66.3998 51.8061 65.6749C54.4217 64.95 56.8447 63.6559 58.9018 61.8852L59.6668 62.6785V64.9168L71.7085 76.9585C72.8702 78.1202 74.7685 78.1202 75.9302 76.9585C77.0918 75.7968 77.0918 73.8985 75.9302 72.7368L63.9168 60.6668ZM46.9168 60.6668C39.8618 60.6668 34.1668 54.9718 34.1668 47.9168C34.1668 40.8618 39.8618 35.1668 46.9168 35.1668C53.9718 35.1668 59.6668 40.8618 59.6668 47.9168C59.6668 54.9718 53.9718 60.6668 46.9168 60.6668Z" fill="white"/>
</svg>
