<svg width="57" height="58" viewBox="0 0 57 58" fill="none" xmlns="http://www.w3.org/2000/svg">
<path d="M28.5 0.5C43.9558 0.5 56.5 13.2517 56.5 29C56.5 44.7483 43.9558 57.5 28.5 57.5C13.0442 57.5 0.5 44.7483 0.5 29C0.5 13.2517 13.0442 0.5 28.5 0.5Z" stroke="white"/>
<path d="M16.4992 17.9143C16.7826 17.6309 17.1131 17.4893 17.4909 17.4893C17.8687 17.4893 18.1992 17.6309 18.4826 17.9143L19.5096 18.9059C19.793 19.1893 19.9346 19.526 19.9346 19.916C19.9346 20.3061 19.793 20.6423 19.5096 20.9247C19.2263 21.2071 18.8901 21.3487 18.501 21.3497C18.1119 21.3506 17.7752 21.209 17.4909 20.9247L16.4992 19.8976C16.2159 19.6143 16.0742 19.2837 16.0742 18.9059C16.0742 18.5281 16.2159 18.1976 16.4992 17.9143ZM29.0013 14.833C29.4027 14.833 29.7394 14.969 30.0114 15.241C30.2834 15.513 30.4189 15.8492 30.418 16.2497V17.6663C30.418 18.0677 30.282 18.4044 30.01 18.6764C29.738 18.9484 29.4017 19.084 29.0013 19.083C28.6009 19.0821 28.2646 18.9461 27.9926 18.675C27.7206 18.404 27.5846 18.0677 27.5846 17.6663V16.2497C27.5846 15.8483 27.7206 15.5121 27.9926 15.241C28.2646 14.97 28.6009 14.834 29.0013 14.833ZM41.468 17.9143C41.7513 18.1976 41.8873 18.5281 41.876 18.9059C41.8646 19.2837 41.7168 19.6143 41.4326 19.8976L40.4409 20.9247C40.1576 21.208 39.827 21.3497 39.4492 21.3497C39.0714 21.3497 38.7409 21.208 38.4576 20.9247C38.1742 20.6413 38.0326 20.3051 38.0326 19.916C38.0326 19.5269 38.1742 19.1902 38.4576 18.9059L39.4492 17.9143C39.7326 17.6309 40.0692 17.4893 40.4593 17.4893C40.8494 17.4893 41.1856 17.6309 41.468 17.9143ZM19.2617 31.833H38.7409C39.0714 31.833 39.2957 31.9747 39.4138 32.258C39.5319 32.5413 39.4728 32.8011 39.2367 33.0372L30.9846 41.183C30.4416 41.7261 29.7805 41.9976 29.0013 41.9976C28.2221 41.9976 27.561 41.7261 27.018 41.183L18.7659 33.0372C18.5298 32.8011 18.4707 32.5413 18.5888 32.258C18.7069 31.9747 18.9312 31.833 19.2617 31.833ZM18.4826 27.8309L22.4846 22.9434C22.7444 22.6129 23.0692 22.3593 23.4593 22.1827C23.8494 22.0061 24.2564 21.9173 24.6805 21.9163H33.3221C33.7471 21.9163 34.1547 22.0051 34.5447 22.1827C34.9348 22.3602 35.2592 22.6138 35.518 22.9434L39.5201 27.8309C39.7089 28.067 39.7444 28.3211 39.6263 28.5931C39.5082 28.8651 39.2957 29.0006 38.9888 28.9997H19.0138C18.7069 28.9997 18.4944 28.8637 18.3763 28.5917C18.2582 28.3197 18.2937 28.0661 18.4826 27.8309Z" fill="white"/>
</svg>
